<svg xmlns="http://www.w3.org/2000/svg" xmlns:xlink="http://www.w3.org/1999/xlink" width="100%" height="100%" version="1.1" style="cursor:crosshair"><line x1="0" x2="0" y1="0" y2="400" stroke="#00f" stroke-width="1"/><line x1="50" x2="50" y1="0" y2="400" stroke="#00f" stroke-width="1"/><line x1="100" x2="100" y1="0" y2="400" stroke="#00f" stroke-width="1"/><line x1="150" x2="150" y1="0" y2="400" stroke="#00f" stroke-width="1"/><line x1="200" x2="200" y1="0" y2="400" stroke="#00f" stroke-width="1"/><line x1="250" x2="250" y1="0" y2="400" stroke="#00f" stroke-width="1"/><line x1="300" x2="300" y1="0" y2="400" stroke="#00f" stroke-width="1"/><line x1="350" x2="350" y1="0" y2="400" stroke="#00f" stroke-width="1"/><line x1="400" x2="400" y1="0" y2="400" stroke="#00f" stroke-width="1"/><line x1="0" x2="400" y1="0" y2="0" stroke="#00f" stroke-width="1"/><line x1="0" x2="400" y1="50" y2="50" stroke="#00f" stroke-width="1"/><line x1="0" x2="400" y1="100" y2="100" stroke="#00f" stroke-width="1"/><line x1="0" x2="400" y1="150" y2="150" stroke="#00f" stroke-width="1"/><line x1="0" x2="400" y1="200" y2="200" stroke="#00f" stroke-width="1"/><line x1="0" x2="400" y1="250" y2="250" stroke="#00f" stroke-width="1"/><line x1="0" x2="400" y1="300" y2="300" stroke="#00f" stroke-width="1"/><line x1="0" x2="400" y1="350" y2="350" stroke="#00f" stroke-width="1"/><line x1="0" x2="400" y1="400" y2="400" stroke="#00f" stroke-width="1"/><polyline id="a" fill="none" stroke="red" stroke-width="2" points="25 175 75 175 75 125 25 125 25 25 75 25 75 75 125 75 125 25 175 25 175 125 125 125 125 175 200 175"/><polyline id="b" fill="none" stroke="#00f" stroke-width="2" points="200 175 275 175 275 125 225 125 225 25 275 25 275 75 325 75 325 25 375 25 375 125 325 125 325 175 375 175"/><polyline id="c" fill="none" stroke="#000" stroke-width="2" points="25 175 25 225 25 275 75 275 75 225 175 225 175 275 125 275 125 325 175 325 175 375 125 375 75 375 75 325 25 325 25 375"/><polyline id="d" fill="none" stroke="#0f0" stroke-width="2" points="375 175 375 225 375 275 325 275 325 225 225 225 225 275 275 275 275 325 225 325 225 375 325 375 325 325 375 325 375 375"/></svg>