<svg xmlns="http://www.w3.org/2000/svg" xmlns:xlink="http://www.w3.org/1999/xlink" width="100%" height="100%" version="1.1" style="cursor:crosshair"><g transform="translate(0,50)"><path id="a" fill="#6495ed" stroke="#ff69b4" stroke-linejoin="round" stroke-width="20" d="M200 25,225 25,225 75,275 75,275 25,375 25,375 75,325 75,325 125,375 125,375 175, 275 175,275 125,225 125,225 125,225 200,175 200,175 125,125 125,125 175,25 175,25 125,75 125,75 75, 25 75,25 25,125 25,125 75,175 75,175 25,200 25, 370 -25,375 -25,375 25,375 75,325 75,325 25,225 25,225 75,275 75,275 125,225 125,225 175,325 175,325 125, 375 125,375 225,325 225,325 275,375 275,375 375,325 375,325 325,275 325,275 375,225 375,225 275, 275 275,275 225,200 225,125 225,125 275,175 275,175 375,125 375,125 325,75 325,75 375,25 375,25 275, 75 275,75 225,25 225,25 125,75 125,75 175,175 175,175 125,125 125,125 75,175 75,175 25,75 25,75 75, 25 75,25 25,25 -25,370 -25"/><circle cx="0" cy="0" r="10" fill="#ff0" stroke="#000" stroke-width="1"><animateMotion fill="freeze" dur="40s" repeatCount="indefinite"><mpath xlink:href="#a"/></animateMotion></circle><circle cx="0" cy="0" r="5" fill="#0ff" stroke="#00f" stroke-width="1"><animateMotion fill="freeze" dur="20s" repeatCount="indefinite"><mpath xlink:href="#a"/></animateMotion></circle><image width="40" height="40" x="0" y="0" xlink:href="tmpSVGlogo.png"><animateMotion fill="freeze" dur="60s" repeatCount="indefinite"><mpath xlink:href="#a"/></animateMotion></image><text fill="red" font-family="Verdana" font-size="40" font-weight="bold">Opera <animateMotion fill="freeze" begin="5s" dur="55s" repeatCount="1"> <mpath xlink:href="#a"/></animateMotion></text></g></svg>